<svg width="254" height="146" viewBox="0 0 254 146" fill="none" xmlns="http://www.w3.org/2000/svg">
  <path d="M183.8 127.058H110.957C107.865 127.058 105.355 124.549 105.355 121.457C105.355 118.365 107.865 115.855 110.957 115.855H178.199V16.6507C178.199 13.9395 175.992 11.7325 173.28 11.7325H41.6372C38.5451 11.7325 36.0356 9.22298 36.0356 6.1309C36.0356 3.03881 38.5451 0.529297 41.6372 0.529297H173.28C182.17 0.529297 189.402 7.76096 189.402 16.6507V121.457C189.402 124.549 186.895 127.058 183.8 127.058Z" fill="black" />
  <path d="M74.1293 127.058H41.6372C38.5451 127.058 36.0356 124.549 36.0356 121.457C36.0356 118.365 38.5451 115.855 41.6372 115.855H74.1293C77.2214 115.855 79.7309 118.365 79.7309 121.457C79.7309 124.549 77.2242 127.058 74.1293 127.058Z" fill="black" />
  <path d="M235.707 127.058H232.397C229.305 127.058 226.795 124.549 226.795 121.457C226.795 118.365 229.305 115.855 232.397 115.855H235.707C239.085 115.855 241.836 113.107 241.836 109.727V57.2819C241.836 51.0865 239.054 45.3197 234.203 41.463L219.188 29.5204C215.629 26.686 211.158 25.1259 206.607 25.1259H189.402V115.858H195.566C198.658 115.858 201.168 118.367 201.168 121.459C201.168 124.552 198.658 127.061 195.566 127.061H183.8C180.708 127.061 178.199 124.552 178.199 121.459V19.5215C178.199 16.4294 180.708 13.9199 183.8 13.9199H206.604C213.679 13.9199 220.625 16.3454 226.16 20.7483L241.175 32.6909C248.714 38.6874 253.036 47.65 253.036 57.2819V109.73C253.036 119.283 245.264 127.058 235.707 127.058Z" fill="black" />
  <path d="M247.434 76.7223H211.248C204.417 76.7223 198.855 71.1627 198.855 64.3287V19.5215C198.855 16.4294 201.364 13.9199 204.456 13.9199C207.548 13.9199 210.058 16.4294 210.058 19.5215V64.3287C210.058 64.9841 210.59 65.5191 211.248 65.5191H247.434C250.526 65.5191 253.036 68.0286 253.036 71.1207C253.036 74.2127 250.526 76.7223 247.434 76.7223Z" fill="black" />
  <path d="M92.5445 145.471C79.3024 145.471 68.5277 134.696 68.5277 121.457C68.5277 108.217 79.3024 97.4426 92.5445 97.4426C105.787 97.4426 116.559 108.217 116.559 121.457C116.559 134.696 105.787 145.471 92.5445 145.471ZM92.5445 108.646C85.4809 108.646 79.7309 114.393 79.7309 121.457C79.7309 128.52 85.4781 134.267 92.5445 134.267C99.611 134.267 105.355 128.52 105.355 121.457C105.355 114.393 99.6082 108.646 92.5445 108.646Z" fill="black" />
  <path d="M213.984 145.471C200.739 145.471 189.968 134.696 189.968 121.457C189.968 108.217 200.742 97.4426 213.984 97.4426C227.227 97.4426 237.998 108.217 237.998 121.457C237.998 134.696 227.224 145.471 213.984 145.471ZM213.984 108.646C206.921 108.646 201.171 114.393 201.171 121.457C201.171 128.52 206.921 134.267 213.984 134.267C221.048 134.267 226.795 128.52 226.795 121.457C226.795 114.393 221.048 108.646 213.984 108.646Z" fill="black" />
  <path d="M247.434 92.2919H222.729C219.636 92.2919 217.127 89.7824 217.127 86.6903C217.127 83.5982 219.636 81.0887 222.729 81.0887H247.434C250.526 81.0887 253.036 83.5982 253.036 86.6903C253.036 89.7824 250.526 92.2919 247.434 92.2919Z" fill="black" />
  <path d="M92.5446 126.12C95.1247 126.12 97.2163 124.028 97.2163 121.448C97.2163 118.868 95.1247 116.777 92.5446 116.777C89.9644 116.777 87.8728 118.868 87.8728 121.448C87.8728 124.028 89.9644 126.12 92.5446 126.12Z" fill="black" />
  <path d="M213.987 126.12C216.567 126.12 218.659 124.028 218.659 121.448C218.659 118.868 216.567 116.777 213.987 116.777C211.407 116.777 209.315 118.868 209.315 121.448C209.315 124.028 211.407 126.12 213.987 126.12Z" fill="black" />
  <path d="M235.707 127.058H232.397C229.305 127.058 226.795 124.549 226.795 121.457C226.795 118.365 229.305 115.855 232.397 115.855H235.707C239.085 115.855 241.836 113.107 241.836 109.727V57.2819C241.836 51.0865 239.054 45.3197 234.203 41.463L219.188 29.5204C215.629 26.686 211.158 25.1259 206.607 25.1259H189.402V115.858H195.566C198.658 115.858 201.168 118.367 201.168 121.459C201.168 124.552 198.658 127.061 195.566 127.061H183.8C180.708 127.061 178.199 124.552 178.199 121.459V19.5215C178.199 16.4294 180.708 13.9199 183.8 13.9199H206.604C213.679 13.9199 220.625 16.3454 226.16 20.7483L241.175 32.6909C248.714 38.6874 253.036 47.65 253.036 57.2819V109.73C253.036 119.283 245.264 127.058 235.707 127.058Z" fill="black" />
  <path d="M87.8728 93.5271H23.1211C20.029 93.5271 17.5195 91.0175 17.5195 87.9255C17.5195 84.8334 20.029 82.3239 23.1211 82.3239H87.8728C90.9649 82.3239 93.4744 84.8334 93.4744 87.9255C93.4744 91.0175 90.9649 93.5271 87.8728 93.5271Z" fill="black" />
  <path d="M75.6753 45.2637H29.4789C26.3869 45.2637 23.8773 42.7542 23.8773 39.6621C23.8773 36.57 26.3869 34.0605 29.4789 34.0605H75.6753C78.7674 34.0605 81.2769 36.57 81.2769 39.6621C81.2769 42.7542 78.7674 45.2637 75.6753 45.2637Z" fill="black" />
  <path d="M71.3173 69.3954H6.56559C3.47351 69.3954 0.963989 66.8859 0.963989 63.7938C0.963989 60.7017 3.47351 58.1922 6.56559 58.1922H71.3173C74.4094 58.1922 76.9189 60.7017 76.9189 63.7938C76.9189 66.8859 74.4122 69.3954 71.3173 69.3954Z" fill="black" />
</svg>